<svg xmlns="http://www.w3.org/2000/svg" viewBox="0 0 760 220" width="760" height="220" role="img" aria-label="GHOSTNAME WORLDWIDE primary logo: faceless ski mask beside the GHOSTNAME wordmark">
  <title>GHOSTNAME WORLDWIDE — primary logo</title>
  <rect width="760" height="220" fill="#ffffff"/>
  <path fill="#000000" fill-rule="evenodd" d="M 110,18 C 152,18 178,56 178,104 C 178,158 156,196 110,196 C 64,196 42,158 42,104 C 42,56 68,18 110,18 Z M 92,94 a 12,12 0 1,0 24,0 a 12,12 0 1,0 -24,0 Z M 132,94 a 12,12 0 1,0 24,0 a 12,12 0 1,0 -24,0 Z"/>
  <text x="238" y="122" font-family="'Arial Black','Helvetica Neue',Helvetica,Arial,sans-serif" font-weight="900" font-size="86" letter-spacing="-3" fill="#000000">GHOSTNAME</text>
  <text x="240" y="164" font-family="'Helvetica Neue',Helvetica,Arial,sans-serif" font-weight="400" font-size="21" letter-spacing="13" fill="#000000">WORLDWIDE</text>
  <text x="242" y="196" font-family="'Helvetica Neue',Helvetica,Arial,sans-serif" font-weight="400" font-size="12" letter-spacing="5" fill="#000000">FACELESS.FEARLESS.FOREVER.</text>
</svg>
